<svg width="16" height="16" viewBox="0 0 16 16" fill="none" xmlns="http://www.w3.org/2000/svg">
<path fill-rule="evenodd" clip-rule="evenodd" d="M14 6.7669V11.9779C14 13.4629 12.8061 14.6667 11.3333 14.6667H4.66667C3.19391 14.6667 2 13.4629 2 11.9779V6.7669C2 5.95959 2.35976 5.19501 2.97991 4.68436L6.31324 1.93958C7.29487 1.13127 8.70513 1.13127 9.68676 1.93957L13.0201 4.68436C13.6402 5.19501 14 5.95959 14 6.7669ZM10.1667 11.5V13C10.1667 13.3682 9.86819 13.6667 9.5 13.6667H6.5C6.13181 13.6667 5.83333 13.3682 5.83333 13V11.5C5.83333 10.3034 6.80338 9.33334 8 9.33334C9.19662 9.33334 10.1667 10.3034 10.1667 11.5Z" fill="currentColor"/>
</svg>
