<svg width="16" height="16" viewBox="0 0 16 16" fill="none" xmlns="http://www.w3.org/2000/svg">
<path d="M10.9192 2.16776C11.6923 2.17007 12.433 2.47819 12.9797 3.02483C13.5263 3.57147 13.8344 4.31221 13.8367 5.08527V10.9197C13.8344 11.6927 13.5263 12.4335 12.9797 12.9801C12.433 13.5267 11.6923 13.8349 10.9192 13.8372H5.08481C4.31175 13.8349 3.57101 13.5267 3.02437 12.9801C2.47773 12.4335 2.16961 11.6927 2.1673 10.9197V5.08527C2.16961 4.31221 2.47773 3.57147 3.02437 3.02483C3.57101 2.47819 4.31175 2.17007 5.08481 2.16776H10.9192ZM10.9192 1.00095H5.08481C2.83839 1.00095 1.00049 2.83885 1.00049 5.08527V10.9197C1.00049 13.1661 2.83839 15.004 5.08481 15.004H10.9192C13.1656 15.004 15.0035 13.1661 15.0035 10.9197V5.08527C15.0035 2.83885 13.1656 1.00095 10.9192 1.00095Z" fill="currentColor"/>
<path d="M11.7966 5.09026C11.6231 5.09026 11.4534 5.03879 11.309 4.94235C11.1647 4.8459 11.0522 4.70883 10.9858 4.54845C10.9193 4.38807 10.9019 4.21159 10.9358 4.04134C10.9697 3.87108 11.0533 3.71469 11.176 3.59194C11.2988 3.46919 11.4552 3.3856 11.6254 3.35173C11.7957 3.31787 11.9721 3.33525 12.1325 3.40168C12.2929 3.46811 12.43 3.58061 12.5264 3.72494C12.6229 3.86928 12.6743 4.03897 12.6743 4.21257C12.6746 4.3279 12.6521 4.44214 12.608 4.54874C12.564 4.65534 12.4994 4.75219 12.4178 4.83375C12.3363 4.9153 12.2394 4.97994 12.1328 5.02396C12.0262 5.06798 11.912 5.09051 11.7966 5.09026Z" fill="currentColor"/>
<path d="M8.00174 5.66746C8.46335 5.66746 8.9146 5.80434 9.29841 6.0608C9.68223 6.31726 9.98137 6.68177 10.158 7.10824C10.3347 7.53471 10.3809 8.00399 10.2908 8.45673C10.2008 8.90947 9.9785 9.32534 9.65209 9.65175C9.32568 9.97816 8.90981 10.2004 8.45707 10.2905C8.00433 10.3806 7.53505 10.3343 7.10858 10.1577C6.68211 9.98104 6.31759 9.68189 6.06114 9.29807C5.80468 8.91426 5.66779 8.46301 5.66779 8.0014C5.66846 7.38261 5.91457 6.78934 6.35212 6.35179C6.78968 5.91423 7.38294 5.66812 8.00174 5.66746ZM8.00174 4.50064C7.30935 4.50064 6.63252 4.70596 6.05682 5.09063C5.48112 5.47529 5.03242 6.02204 4.76746 6.66172C4.50249 7.3014 4.43317 8.00529 4.56824 8.68437C4.70332 9.36345 5.03674 9.98722 5.52633 10.4768C6.01592 10.9664 6.63969 11.2998 7.31878 11.4349C7.99786 11.57 8.70174 11.5006 9.34142 11.2357C9.9811 10.9707 10.5278 10.522 10.9125 9.94632C11.2972 9.37063 11.5025 8.69379 11.5025 8.0014C11.5025 7.07294 11.1337 6.18251 10.4772 5.52599C9.82063 4.86947 8.9302 4.50064 8.00174 4.50064Z" fill="currentColor"/>
</svg>
