<svg width="16" height="16" viewBox="0 0 16 16" fill="none" xmlns="http://www.w3.org/2000/svg">
<path fill-rule="evenodd" clip-rule="evenodd" d="M4.00016 1.33331C2.5274 1.33331 1.3335 2.52722 1.3335 3.99998V12C1.3335 13.4727 2.5274 14.6666 4.00016 14.6666H12.0002C13.4729 14.6666 14.6668 13.4727 14.6668 12V3.99998C14.6668 2.52722 13.4729 1.33331 12.0002 1.33331H4.00016ZM8.50016 4.66665C8.50016 4.3905 8.27631 4.16665 8.00016 4.16665C7.72402 4.16665 7.50016 4.3905 7.50016 4.66665V7.99998C7.50016 8.21519 7.63788 8.40626 7.84205 8.47432L9.84205 9.14099C10.104 9.22831 10.3872 9.08673 10.4745 8.82476C10.5618 8.56279 10.4202 8.27963 10.1583 8.1923L8.50016 7.6396V4.66665Z" fill="currentColor"/>
</svg>
