<svg width="16" height="16" viewBox="0 0 16 16" fill="none" xmlns="http://www.w3.org/2000/svg">
<path fill-rule="evenodd" clip-rule="evenodd" d="M6.56025 3.37503C6.32064 3.97895 6.12561 4.71254 5.99383 5.53611C6.63143 5.47771 7.30507 5.44662 8.00018 5.44662C8.69528 5.44662 9.36893 5.47771 10.0065 5.53611C9.87474 4.71254 9.67972 3.97895 9.4401 3.37503C9.20979 2.79456 8.94823 2.35908 8.68369 2.07707C8.42016 1.79614 8.18902 1.70178 8.00018 1.70178C7.81134 1.70178 7.58019 1.79614 7.31666 2.07707C7.05213 2.35908 6.79056 2.79456 6.56025 3.37503ZM5.61966 2.99572C5.32068 3.74927 5.09127 4.65701 4.95067 5.66052C4.25853 5.76343 3.6269 5.90074 3.07908 6.06643C2.44165 6.25922 1.88891 6.49892 1.48422 6.78831C1.4331 6.82487 1.38263 6.86351 1.33353 6.90424C1.78022 4.12059 3.90092 1.90241 6.62076 1.33334C6.60727 1.34718 6.59389 1.36118 6.58063 1.37532C6.19877 1.78239 5.87822 2.34404 5.61966 2.99572ZM9.37959 1.33334C9.39308 1.34718 9.40646 1.36118 9.41973 1.37532C9.80158 1.78239 10.1221 2.34404 10.3807 2.99572C10.6797 3.74927 10.9091 4.65701 11.0497 5.66052C11.7418 5.76343 12.3735 5.90074 12.9213 6.06643C13.5587 6.25922 14.1114 6.49892 14.5161 6.78831C14.5673 6.82487 14.6177 6.86351 14.6668 6.90425C14.2201 4.12059 12.0994 1.90241 9.37959 1.33334ZM14.6669 9.09557C14.6177 9.13631 14.5673 9.17496 14.5161 9.21153C14.1114 9.50091 13.5587 9.74062 12.9213 9.9334C12.3735 10.0991 11.7418 10.2364 11.0497 10.3393C10.9091 11.3428 10.6797 12.2506 10.3807 13.0041C10.1221 13.6558 9.80158 14.2174 9.41973 14.6245C9.4064 14.6387 9.39295 14.6528 9.37939 14.6667C12.0994 14.0977 14.2202 11.8794 14.6669 9.09557ZM6.62097 14.6667C6.6074 14.6528 6.59396 14.6387 6.58063 14.6245C6.19877 14.2174 5.87822 13.6558 5.61966 13.0041C5.32068 12.2506 5.09127 11.3428 4.95067 10.3393C4.25853 10.2364 3.6269 10.0991 3.07908 9.9334C2.44165 9.74062 1.88891 9.50091 1.48422 9.21153C1.43308 9.17496 1.38261 9.13631 1.3335 9.09557C1.78014 11.8794 3.90097 14.0977 6.62097 14.6667ZM3.37017 8.95516C3.79983 9.08511 4.29418 9.19776 4.83905 9.28815C4.8082 8.86936 4.79219 8.43876 4.79219 7.99992C4.79219 7.56108 4.8082 7.13047 4.83905 6.71169C4.29418 6.80208 3.79983 6.91473 3.37017 7.04468C2.78543 7.22153 2.34912 7.42198 2.0703 7.62136C1.77833 7.83014 1.75305 7.96546 1.75305 7.99992C1.75305 8.03437 1.77833 8.1697 2.0703 8.37848C2.34912 8.57785 2.78543 8.7783 3.37017 8.95516ZM5.80524 7.99992C5.80524 8.49098 5.82648 8.96788 5.86641 9.42525C6.53236 9.49409 7.25007 9.5319 8.00018 9.5319C8.75029 9.5319 9.468 9.49409 10.1339 9.42525C10.1739 8.96788 10.1951 8.49098 10.1951 7.99992C10.1951 7.50886 10.1739 7.03195 10.1339 6.57459C9.468 6.50574 8.75029 6.46794 8.00018 6.46794C7.25007 6.46794 6.53236 6.50574 5.86641 6.57459C5.82648 7.03195 5.80524 7.50886 5.80524 7.99992ZM6.56025 12.6248C6.32064 12.0209 6.12561 11.2873 5.99383 10.4637C6.63143 10.5221 7.30507 10.5532 8.00018 10.5532C8.69528 10.5532 9.36893 10.5221 10.0065 10.4637C9.87474 11.2873 9.67972 12.0209 9.4401 12.6248C9.20979 13.2053 8.94823 13.6408 8.68369 13.9228C8.42016 14.2037 8.18902 14.2981 8.00018 14.2981C7.81134 14.2981 7.58019 14.2037 7.31666 13.9228C7.05213 13.6408 6.79056 13.2053 6.56025 12.6248ZM12.6302 8.95516C12.2005 9.08511 11.7062 9.19776 11.1613 9.28815C11.1922 8.86936 11.2082 8.43876 11.2082 7.99992C11.2082 7.56108 11.1922 7.13048 11.1613 6.71169C11.7062 6.80208 12.2005 6.91473 12.6302 7.04468C13.2149 7.22153 13.6512 7.42198 13.9301 7.62136C14.222 7.83014 14.2473 7.96546 14.2473 7.99992C14.2473 8.03437 14.222 8.1697 13.9301 8.37848C13.6512 8.57786 13.2149 8.7783 12.6302 8.95516Z" fill="currentColor"/>
</svg>
