<svg width="60" height="60" viewBox="0 0 60 60" fill="none" xmlns="http://www.w3.org/2000/svg">
<path d="M1.83789 1.83795C4.2885 -0.612656 8.26228 -0.61266 10.7129 1.83795L29.9404 21.0655L49.1689 1.83893C51.6195 -0.611368 55.5924 -0.61143 58.043 1.83893C60.4936 4.28954 60.4936 8.26332 58.043 10.7139L38.8154 29.9405L58.043 49.168C60.4936 51.6186 60.4936 55.5924 58.043 58.043C55.5924 60.4934 51.6195 60.4933 49.1689 58.043L29.9414 38.8155L10.7129 58.044C8.26228 60.4946 4.2885 60.4946 1.83789 58.044C-0.612559 55.5934 -0.612665 51.6196 1.83789 49.169L21.0664 29.9405L1.83789 10.712C-0.612213 8.26139 -0.612386 4.28842 1.83789 1.83795Z" fill="currentColor"/>
</svg>
